<?xml version="1.0" standalone="no"?>
<!DOCTYPE svg PUBLIC "-//W3C//DTD SVG 20010904//EN"
 "http://www.w3.org/TR/2001/REC-SVG-20010904/DTD/svg10.dtd">
<svg version="1.0" xmlns="http://www.w3.org/2000/svg"
 width="500.000000pt" height="500.000000pt" viewBox="0 0 500.000000 500.000000"
 preserveAspectRatio="xMidYMid meet">

<g transform="translate(0.000000,500.000000) scale(0.100000,-0.100000)"
fill="#FF0000" stroke="none">
<path d="M2570 4105 c-24 -25 -29 -36 -19 -39 181 -54 242 -88 349 -196 132
-132 193 -281 194 -470 0 -123 -18 -204 -69 -305 -37 -74 -18 -57 35 31 66
109 107 282 95 399 -15 139 -77 290 -157 383 -86 99 -216 185 -318 212 -25 6
-52 13 -61 16 -8 2 -30 -11 -49 -31z m50 22 c0 -2 -15 -16 -32 -33 l-33 -29
29 33 c28 30 36 37 36 29z"/>
<path d="M2430 3965 l-34 -35 65 6 c128 12 293 -44 397 -134 39 -33 50 -39 38
-21 -19 30 -91 93 -152 133 -52 34 -134 66 -199 76 -47 8 -52 7 -85 -23 l-35
-32 29 33 c40 43 19 41 -24 -3z"/>
<path d="M4283 3897 c-61 -129 -183 -228 -470 -380 -243 -129 -344 -192 -601
-375 -156 -111 -244 -193 -300 -280 -61 -94 -78 -151 -73 -247 10 -196 6 -257
-23 -355 -47 -159 -44 -277 11 -385 l18 -34 0 98 c0 97 1 100 44 182 133 252
135 256 136 325 0 35 2 64 4 64 2 0 42 -35 90 -78 118 -108 184 -158 255 -195
56 -29 69 -32 153 -32 60 0 96 4 105 13 9 9 6 12 -20 12 -76 0 -167 80 -276
244 -36 55 -64 102 -62 104 3 2 85 -24 183 -57 200 -68 291 -85 376 -71 85 14
97 24 45 39 -49 15 -89 37 -168 95 -30 22 -77 53 -105 68 -48 27 -49 28 -20
28 17 0 85 -7 150 -15 236 -29 375 -16 498 47 l62 32 -58 8 c-36 4 -94 25
-155 54 -53 26 -117 55 -142 65 l-45 17 55 6 c30 3 96 8 145 11 175 12 280 50
362 131 25 25 43 47 41 49 -1 2 -28 -3 -58 -11 -41 -11 -93 -14 -205 -11 -154
5 -405 27 -405 37 0 3 67 21 148 41 224 54 307 99 375 202 57 86 94 210 46
150 -28 -33 -132 -92 -207 -117 -42 -14 -145 -39 -227 -55 -83 -17 -158 -33
-168 -37 -40 -15 -11 7 81 61 338 201 431 304 440 485 2 41 2 89 0 105 -3 28
-5 25 -35 -38z"/>
<path d="M1939 3893 c-13 -16 -12 -17 4 -4 9 7 17 15 17 17 0 8 -8 3 -21 -13z"/>
<path d="M2029 3823 c-13 -16 -12 -17 4 -4 9 7 17 15 17 17 0 8 -8 3 -21 -13z"/>
<path d="M2745 3574 c-40 -7 -98 -10 -136 -7 -73 6 -111 -6 -218 -71 -144 -88
-226 -117 -327 -118 -63 0 -63 -1 -41 -18 60 -47 121 -64 232 -64 l70 -1 27
-50 c48 -88 61 -169 55 -324 -6 -143 -22 -237 -101 -584 -58 -253 -83 -404
-96 -572 -24 -294 37 -584 168 -802 44 -73 138 -203 147 -203 2 0 -9 32 -25
70 -88 213 -118 446 -86 660 25 161 66 273 224 601 104 216 123 276 130 393 6
126 -7 199 -75 411 -91 283 -86 394 26 506 61 61 187 140 225 143 30 1 26 9
-18 30 -39 18 -83 19 -181 0z"/>
<path d="M1891 3426 c-20 -21 -22 -31 -16 -68 14 -96 82 -263 115 -283 5 -3
-2 14 -15 37 -35 63 -54 147 -56 249 -1 49 -2 89 -3 89 -2 0 -13 -11 -25 -24z
m19 -10 c0 -2 -8 -10 -17 -17 -16 -13 -17 -12 -4 4 13 16 21 21 21 13z"/>
<path d="M1400 2937 l-285 -287 50 5 c28 3 93 10 145 16 127 15 149 10 90 -20
-25 -13 -75 -46 -113 -72 -37 -27 -87 -59 -112 -71 -25 -12 -45 -25 -45 -29 0
-4 -10 -5 -22 -3 -21 4 -20 3 2 -7 14 -6 52 -15 85 -19 78 -12 151 3 364 75
91 30 168 55 172 55 10 0 -114 -183 -168 -248 -48 -56 -107 -95 -163 -108
l-35 -8 30 -7 c143 -33 283 30 482 215 50 47 93 86 95 86 1 0 3 -35 4 -78 0
-69 6 -89 48 -192 43 -101 49 -126 53 -206 4 -66 1 -106 -10 -145 -9 -29 -14
-55 -12 -57 5 -5 80 97 100 137 57 113 139 507 140 671 0 76 -3 91 -30 140
-37 69 -157 189 -255 256 -41 28 -126 79 -189 114 l-114 62 -281 -278 -281
-279 279 281 c153 155 274 283 270 285 -5 2 -137 -125 -294 -284z"/>
</g>
</svg>
